<svg width="879" height="294" viewBox="0 0 879 294" fill="none" xmlns="http://www.w3.org/2000/svg">
<path d="M53.8411 194.063C53.9466 206.51 58.9869 218.409 67.8534 227.144C76.7202 235.879 88.6873 240.735 101.122 240.641L217.806 239.768C217.701 227.322 212.661 215.423 203.794 206.687C194.927 197.952 182.96 193.097 170.526 193.19L53.8411 194.063Z" fill="url(#paint0_linear_9_77)"/>
<path d="M50.0513 125.167C50.1556 137.613 55.196 149.513 64.0627 158.248C72.9305 166.983 84.8972 171.838 97.331 171.745L214.016 170.873C213.911 158.427 208.87 146.527 200.004 137.792C191.137 129.056 179.17 124.202 166.735 124.294L50.0513 125.167Z" fill="url(#paint1_linear_9_77)"/>
<path d="M75.9288 54.0408C82.3939 53.9943 88.8293 53.4669 95.2518 52.8658C98.504 52.5297 101.79 52.8657 104.908 53.8523C108.026 54.8391 110.909 56.4554 113.379 58.6018C115.849 60.7482 117.852 63.3787 119.266 66.3305C120.68 69.2822 121.474 72.4925 121.599 75.7624C121.723 79.0325 121.176 82.2927 119.991 85.3411C118.806 88.3894 117.008 91.1613 114.708 93.4851C112.408 95.809 109.657 97.635 106.622 98.8506C103.589 100.066 100.337 100.645 97.0693 100.551C94.8083 100.519 92.5622 100.17 90.3983 99.5137C80.1535 97.1093 71.0111 91.3269 64.4413 83.0963C57.8707 74.866 54.2545 64.6659 54.1747 54.1358L75.9288 54.0408Z" fill="url(#paint2_linear_9_77)"/>
<path d="M195.163 98.8368C188.698 98.8833 182.262 99.4109 175.84 100.012C172.588 100.348 169.301 100.012 166.184 99.0255C163.066 98.0387 160.182 96.4222 157.713 94.2759C155.243 92.1295 153.239 89.499 151.825 86.5472C150.412 83.5954 149.618 80.3852 149.493 77.1152C149.369 73.8453 149.916 70.5851 151.101 67.5366C152.286 64.4882 154.084 61.7163 156.384 59.3926C158.683 57.0689 161.435 55.2427 164.469 54.0273C167.503 52.8118 170.755 52.2328 174.023 52.3262C176.284 52.3582 178.529 52.7074 180.694 53.3639C190.938 55.7683 200.081 61.5507 206.651 69.7812C213.221 78.0118 216.837 88.212 216.917 98.7416L195.163 98.8368Z" fill="url(#paint3_linear_9_77)"/>
<path d="M826.484 153.341V192H801.786V100.364H825.59V136.338H826.305C827.857 131.953 830.437 128.538 834.046 126.092C837.656 123.616 841.996 122.378 847.067 122.378C851.929 122.378 856.15 123.482 859.729 125.689C863.339 127.896 866.128 130.939 868.097 134.817C870.095 138.695 871.08 143.139 871.05 148.151V192H846.351V153.341C846.381 149.94 845.531 147.271 843.8 145.332C842.1 143.393 839.669 142.423 836.507 142.423C834.509 142.423 832.749 142.871 831.227 143.766C829.736 144.631 828.572 145.884 827.737 147.524C826.932 149.135 826.514 151.074 826.484 153.341Z" fill="#333333"/>
<path d="M788.298 145.645H765.568C765.449 144.243 764.956 143.035 764.091 142.021C763.226 141.006 762.108 140.231 760.735 139.694C759.393 139.127 757.902 138.844 756.261 138.844C754.143 138.844 752.324 139.232 750.802 140.007C749.281 140.783 748.535 141.886 748.565 143.318C748.535 144.332 748.968 145.272 749.863 146.137C750.787 147.002 752.562 147.673 755.187 148.151L769.147 150.656C776.187 151.939 781.422 154.102 784.853 157.144C788.313 160.157 790.058 164.199 790.088 169.27C790.058 174.162 788.596 178.413 785.703 182.022C782.839 185.602 778.917 188.376 773.935 190.344C768.983 192.283 763.331 193.253 756.977 193.253C746.477 193.253 738.259 191.105 732.323 186.81C726.417 182.514 723.12 176.847 722.434 169.807H746.954C747.282 171.984 748.356 173.67 750.176 174.863C752.025 176.026 754.352 176.608 757.156 176.608C759.423 176.608 761.287 176.22 762.749 175.445C764.24 174.669 765.001 173.565 765.031 172.134C765.001 170.821 764.345 169.777 763.062 169.001C761.809 168.226 759.841 167.599 757.156 167.122L744.985 164.974C737.976 163.751 732.726 161.425 729.235 157.994C725.745 154.564 724.015 150.149 724.045 144.75C724.015 139.977 725.268 135.935 727.804 132.624C730.369 129.283 734.023 126.748 738.766 125.018C743.539 123.258 749.191 122.378 755.724 122.378C765.657 122.378 773.488 124.436 779.215 128.553C784.972 132.669 788 138.366 788.298 145.645Z" fill="#333333"/>
<path d="M676.117 192.253C668.779 192.253 662.455 190.851 657.145 188.047C651.865 185.213 647.794 181.156 644.93 175.876C642.096 170.567 640.679 164.213 640.679 156.815C640.679 149.716 642.111 143.511 644.975 138.202C647.838 132.892 651.88 128.761 657.1 125.808C662.321 122.854 668.48 121.378 675.58 121.378C680.77 121.378 685.468 122.183 689.674 123.794C693.88 125.405 697.475 127.746 700.458 130.819C703.441 133.862 705.738 137.56 707.348 141.915C708.959 146.271 709.765 151.178 709.765 156.636V162.364H648.375V148.761H687.034C687.005 146.793 686.497 145.062 685.513 143.571C684.559 142.05 683.261 140.871 681.62 140.036C680.01 139.171 678.175 138.739 676.117 138.739C674.118 138.739 672.284 139.171 670.613 140.036C668.943 140.871 667.6 142.035 666.586 143.526C665.602 145.018 665.08 146.763 665.02 148.761V163.438C665.02 165.645 665.483 167.614 666.407 169.344C667.332 171.074 668.659 172.431 670.39 173.415C672.12 174.4 674.208 174.892 676.654 174.892C678.354 174.892 679.905 174.653 681.307 174.176C682.739 173.699 683.962 173.013 684.976 172.118C685.99 171.193 686.736 170.089 687.213 168.807H709.765C708.989 173.58 707.154 177.726 704.261 181.246C701.368 184.736 697.534 187.45 692.762 189.389C688.019 191.298 682.47 192.253 676.117 192.253Z" fill="#333333"/>
<path d="M583.786 192.895C578.894 192.895 574.39 191.612 570.274 189.047C566.187 186.482 562.906 182.589 560.43 177.369C557.984 172.148 556.761 165.571 556.761 157.636C556.761 149.344 558.044 142.602 560.609 137.412C563.204 132.222 566.545 128.418 570.632 126.002C574.748 123.586 579.073 122.378 583.607 122.378C587.008 122.378 589.991 122.974 592.556 124.168C595.122 125.331 597.269 126.897 599 128.866C600.73 130.805 602.042 132.937 602.937 135.264H603.295V100.364H627.994V192H603.474V180.724H602.937C601.982 183.051 600.61 185.139 598.821 186.989C597.061 188.808 594.913 190.255 592.377 191.329C589.872 192.373 587.008 192.895 583.786 192.895ZM592.914 173.923C595.181 173.923 597.12 173.267 598.731 171.955C600.372 170.612 601.625 168.733 602.49 166.317C603.384 163.871 603.832 160.977 603.832 157.636C603.832 154.236 603.384 151.327 602.49 148.911C601.625 146.465 600.372 144.601 598.731 143.318C597.12 142.006 595.181 141.349 592.914 141.349C590.647 141.349 588.708 142.006 587.098 143.318C585.517 144.601 584.294 146.465 583.429 148.911C582.593 151.327 582.176 154.236 582.176 157.636C582.176 161.037 582.593 163.96 583.429 166.406C584.294 168.822 585.517 170.687 587.098 171.999C588.708 173.282 590.647 173.923 592.914 173.923Z" fill="#333333"/>
<path d="M498.443 193.074C494.058 193.074 490.18 192.358 486.809 190.926C483.469 189.464 480.844 187.257 478.934 184.304C477.025 181.351 476.071 177.592 476.071 173.028C476.071 169.27 476.712 166.063 477.995 163.408C479.277 160.724 481.067 158.531 483.364 156.831C485.661 155.131 488.331 153.833 491.373 152.938C494.446 152.043 497.757 151.462 501.307 151.193C505.155 150.895 508.242 150.537 510.569 150.119C512.925 149.672 514.626 149.06 515.67 148.285C516.714 147.479 517.236 146.42 517.236 145.108V144.929C517.236 143.139 516.55 141.767 515.177 140.812C513.805 139.858 512.045 139.381 509.898 139.381C507.541 139.381 505.617 139.903 504.126 140.947C502.664 141.961 501.784 143.527 501.486 145.645H478.755C479.054 141.469 480.381 137.621 482.738 134.101C485.124 130.551 488.599 127.717 493.163 125.599C497.727 123.452 503.425 122.378 510.255 122.378C515.177 122.378 519.592 122.96 523.5 124.123C527.407 125.256 530.733 126.852 533.478 128.911C536.222 130.939 538.31 133.325 539.742 136.07C541.204 138.784 541.934 141.737 541.934 144.929V192H518.846V182.335H518.309C516.937 184.901 515.267 186.974 513.298 188.555C511.359 190.136 509.137 191.284 506.631 192C504.155 192.716 501.426 193.074 498.443 193.074ZM506.497 177.503C508.376 177.503 510.136 177.115 511.777 176.339C513.447 175.564 514.804 174.445 515.849 172.984C516.893 171.522 517.415 169.747 517.415 167.659V161.932C516.758 162.2 516.057 162.454 515.312 162.692C514.596 162.931 513.82 163.155 512.985 163.364C512.179 163.572 511.314 163.766 510.39 163.945C509.495 164.124 508.555 164.288 507.571 164.438C505.662 164.736 504.096 165.228 502.873 165.914C501.679 166.57 500.785 167.391 500.188 168.375C499.621 169.33 499.338 170.403 499.338 171.597C499.338 173.506 500.009 174.967 501.351 175.982C502.694 176.996 504.409 177.503 506.497 177.503Z" fill="#333333"/>
<path d="M376.56 192L359.378 123.273H384.077L391.952 165.153H392.489L401.258 123.273H425.241L434.369 164.795H434.906L442.423 123.273H467.122L449.94 192H423.273L413.608 155.131H412.892L403.227 192H376.56Z" fill="#333333"/>
<path d="M319.554 129C319.315 126.017 318.197 123.69 316.198 122.02C314.229 120.349 311.231 119.514 307.204 119.514C304.639 119.514 302.536 119.827 300.895 120.454C299.285 121.05 298.091 121.871 297.316 122.915C296.54 123.959 296.138 125.152 296.108 126.494C296.048 127.598 296.242 128.597 296.69 129.492C297.167 130.357 297.913 131.148 298.927 131.864C299.941 132.55 301.239 133.176 302.819 133.743C304.4 134.31 306.28 134.817 308.457 135.264L315.974 136.875C321.045 137.949 325.386 139.366 328.995 141.126C332.604 142.886 335.557 144.959 337.854 147.345C340.151 149.702 341.837 152.357 342.91 155.31C344.014 158.263 344.581 161.484 344.611 164.974C344.581 171 343.074 176.101 340.091 180.277C337.109 184.453 332.843 187.63 327.295 189.808C321.776 191.985 315.139 193.074 307.383 193.074C299.419 193.074 292.469 191.896 286.533 189.539C280.626 187.183 276.033 183.558 272.751 178.666C269.5 173.744 267.859 167.45 267.829 159.784H291.454C291.604 162.588 292.305 164.945 293.557 166.854C294.81 168.763 296.57 170.21 298.837 171.194C301.134 172.178 303.864 172.67 307.025 172.67C309.68 172.67 311.903 172.342 313.692 171.686C315.482 171.03 316.839 170.12 317.764 168.957C318.689 167.793 319.166 166.466 319.196 164.974C319.166 163.572 318.704 162.349 317.809 161.305C316.944 160.232 315.512 159.277 313.513 158.442C311.515 157.577 308.815 156.771 305.415 156.026L296.287 154.057C288.173 152.297 281.775 149.359 277.091 145.242C272.438 141.096 270.126 135.443 270.156 128.284C270.126 122.467 271.677 117.381 274.81 113.026C277.971 108.641 282.341 105.226 287.92 102.78C293.528 100.334 299.956 99.1108 307.204 99.1108C314.602 99.1108 321.001 100.349 326.4 102.825C331.799 105.3 335.96 108.79 338.883 113.295C341.837 117.769 343.328 123.004 343.358 129H319.554Z" fill="#333333"/>
<defs>
<linearGradient id="paint0_linear_9_77" x1="54.0394" y1="217.527" x2="217.607" y2="216.146" gradientUnits="userSpaceOnUse">
<stop stop-color="#66B3B3"/>
<stop offset="1" stop-color="#95CACA"/>
</linearGradient>
<linearGradient id="paint1_linear_9_77" x1="50.2487" y1="148.632" x2="213.816" y2="147.25" gradientUnits="userSpaceOnUse">
<stop stop-color="#66B3B3"/>
<stop offset="1" stop-color="#95CACA"/>
</linearGradient>
<linearGradient id="paint2_linear_9_77" x1="116.319" y1="84.1433" x2="55.9215" y2="67.9138" gradientUnits="userSpaceOnUse">
<stop stop-color="#0CA4A5"/>
<stop offset="1" stop-color="#097677"/>
</linearGradient>
<linearGradient id="paint3_linear_9_77" x1="154.773" y1="68.7342" x2="215.17" y2="84.964" gradientUnits="userSpaceOnUse">
<stop stop-color="#0CA4A5"/>
<stop offset="1" stop-color="#097677"/>
</linearGradient>
</defs>
</svg>
